<?xml version="1.0" encoding="utf-8"?>
<!DOCTYPE svg PUBLIC "-//W3C//DTD SVG 1.0//EN" "http://www.w3.org/TR/2001/REC-SVG-20010904/DTD/svg10.dtd">
<svg version="1.0" xmlns="http://www.w3.org/2000/svg" width="469px" height="267px" viewBox="0 0 469 267" preserveAspectRatio="xMidYMid meet">
 <g fill="#ffffff">
  <path d="M0 133.50 l0 -133.50 4.25 0 c3.80 0 4.25 0.10 4.25 0.90 0 0.50 -0.60 1.25 -1.35 1.65 -0.70 0.40 -1.95 1.70 -2.75 2.90 l-1.40 2.25 0 126.40 0 126.40 231.75 0 231.75 0 0 -126.80 0 -126.85 -1.05 -1.65 c-0.55 -0.95 -1.70 -2.10 -2.50 -2.55 -0.80 -0.50 -1.45 -1.25 -1.45 -1.75 0 -0.80 0.50 -0.90 3.75 -0.90 l3.75 0 0 133.50 0 133.50 -234.50 0 -234.50 0 0 -133.50z"/>
 </g>
 <g fill="#f7f7f7">
  <path d="M1.50 136.65 l0 -130.30 1.25 -2.15 c1.25 -2.15 3.90 -4.20 5.45 -4.20 1.15 0 1 1.85 -0.20 2.25 -1.35 0.45 -3.10 2.20 -3.90 3.90 -0.80 1.80 -0.90 254.85 -0.10 254.85 0.30 0 0.50 0.25 0.50 0.50 0 0.30 -0.35 0.50 -0.75 0.50 -0.55 0 -0.75 0.60 -0.75 2.50 0 1.90 -0.20 2.50 -0.75 2.50 -0.65 0 -0.75 -14.80 -0.75 -130.35z"/>
  <path d="M228.45 154.05 c-2.75 -0.55 -8.10 -3.80 -10.20 -6.10 -1 -1.15 -2.65 -3.80 -3.65 -5.90 -1.80 -3.75 -1.85 -3.90 -1.85 -10.05 0 -5 0.15 -6.55 0.90 -7.85 0.45 -0.90 0.85 -1.95 0.85 -2.40 0 -1.65 4.15 -6.65 7.25 -8.65 6.50 -4.25 16.50 -5.30 22.40 -2.35 0.80 0.40 1.85 0.75 2.25 0.75 1.65 0 9.10 7.30 9.10 8.95 0 0.35 0.45 1.50 1 2.60 0.70 1.35 1.10 3.40 1.30 6.60 0.35 4.90 -0.10 7.95 -1.70 12.35 -1.40 3.75 -6.20 8.65 -10.55 10.65 -2.90 1.40 -3.70 1.50 -9.25 1.65 -3.30 0.10 -6.85 0 -7.85 -0.25z"/>
  <path d="M466.50 9.25 c0 -0.95 -0.30 -2.30 -0.60 -3.10 -0.75 -1.50 -2.70 -3.65 -3.40 -3.65 -0.30 0 -0.50 -0.55 -0.50 -1.25 0 -1.50 0.20 -1.55 2.30 -0.20 2.75 1.70 4.60 5.85 3.90 8.75 -0.50 1.90 -1.70 1.50 -1.70 -0.55z"/>
 </g>
 <g fill="#efefef">
  <path d="M467 263.75 l0 -1.75 -4.75 0 c-4.40 0 -4.75 -0.05 -4.75 -1 0 -0.90 0.35 -1 4.25 -1 3.45 0 4.25 0.15 4.25 0.75 0 0.40 0.45 0.75 1 0.75 0.85 0 1 0.35 1 2 0 1.10 -0.20 2 -0.50 2 -0.25 0 -0.50 -0.80 -0.50 -1.75z"/>
  <path d="M2.05 261.90 c-0.05 -2.25 0.05 -2.40 1.20 -2.40 1 0 1.25 0.25 1.25 1.25 0 0.80 -0.30 1.25 -0.75 1.25 -0.45 0 -1 0.50 -1.25 1.15 -0.35 0.90 -0.45 0.65 -0.45 -1.25z"/>
  <path d="M227 185.20 c-5.10 -0.65 -12.65 -3 -17.30 -5.35 -4.05 -2.10 -11.70 -8 -11.70 -9.10 0 -0.40 -0.30 -0.75 -0.70 -0.75 -0.35 0 -1.45 -0.85 -2.40 -1.90 -5.05 -5.60 -9.40 -13.30 -11 -19.60 -0.55 -2.05 -1.25 -4.65 -1.50 -5.75 -0.30 -1.10 -0.55 -6.05 -0.55 -11 0 -8.05 0.15 -9.50 1.30 -13.85 0.70 -2.65 1.60 -5.60 2 -6.50 2.50 -5.80 3.35 -7.40 5.70 -10.60 1.40 -1.95 3.05 -4.15 3.60 -4.90 0.60 -0.70 1.05 -2 1.05 -2.85 0 -1.40 0.15 -1.55 1.50 -1.55 1.45 0 2.40 -0.55 9 -5.25 2.50 -1.75 9.20 -4.70 13.70 -6 3.60 -1.05 11.60 -2.20 15.25 -2.25 6.65 0 17.45 2.15 21.45 4.30 1.15 0.65 2.10 0.95 2.10 0.70 0 -0.30 0.80 -0.50 1.75 -0.50 1.40 0 1.75 0.20 1.75 0.95 0 0.95 0.65 1.55 4.30 4.05 2.85 1.95 6.70 5.55 6.70 6.30 0 0.40 0.30 0.70 0.70 0.70 1.30 0 7.05 7.20 8.85 11.10 0.55 1.15 1.55 3.30 2.20 4.65 4.85 10.35 5.65 26.95 1.80 38.25 -2.45 7.20 -3.40 9.45 -5.25 12.15 -1 1.45 -2.20 3.15 -2.65 3.85 -1.40 2.10 -4.80 5.50 -5.50 5.50 -0.35 0 -0.65 0.30 -0.65 0.65 0 0.95 -2.75 3.40 -7 6.20 -5.25 3.45 -8.40 5 -12.60 6.10 -2 0.55 -4.45 1.25 -5.40 1.55 -1.80 0.55 -17.40 1.10 -20.50 0.70z m17.15 -34.10 c4.25 -1.95 9.05 -6.90 10.45 -10.60 0.55 -1.50 1.20 -3.75 1.50 -5 0.60 -3 0.05 -8.75 -1.15 -11.10 -0.50 -1 -0.95 -2.10 -0.95 -2.45 0 -1.65 -7.45 -8.95 -9.10 -8.95 -0.40 0 -1.40 -0.35 -2.25 -0.75 -5.40 -2.70 -13.15 -1.75 -19.40 2.35 -3.10 2 -7.25 7 -7.25 8.65 0 0.45 -0.40 1.50 -0.85 2.40 -0.70 1.20 -0.90 2.75 -0.85 6.40 0 4.45 0.15 5.10 1.80 8.55 2.25 4.80 4.70 7.45 8.80 9.75 4.15 2.30 5.75 2.65 11.50 2.40 3.85 -0.15 5.15 -0.40 7.75 -1.65z"/>
  <path d="M228.30 137.90 c-0.60 -0.85 -0.80 -2.40 -0.80 -6.20 0 -2.80 0.15 -5.45 0.30 -5.90 0.25 -0.70 1.40 -0.80 7.75 -0.80 7.10 0 7.45 0.05 7.45 1 0 0.95 -0.35 1 -6.75 1 l-6.75 0 0 2.50 c0 2.35 0.05 2.50 0.95 2 0.55 -0.25 1.75 -0.50 2.70 -0.50 1.35 0 2.05 -0.35 3 -1.50 1.50 -1.80 1.80 -1.80 3.55 -0.45 l1.30 1 0 -1 c0 -0.60 0.25 -1.05 0.50 -1.05 0.30 0 0.50 0.55 0.50 1.25 0 0.70 0.25 1.25 0.50 1.25 0.35 0 0.50 1.40 0.45 3.70 -0.10 3.40 -0.20 3.75 -1.30 4.25 -0.65 0.30 -3.75 0.55 -6.90 0.55 -5.30 0 -5.75 -0.05 -6.45 -1.10z m12.70 -2.80 c0 -1.45 -0.35 -2.25 -1.50 -3.35 -1.45 -1.40 -1.50 -1.40 -2.50 -0.50 -0.70 0.65 -0.85 1.10 -0.50 1.80 0.30 0.50 0.50 1.35 0.50 1.90 0 1.30 -1.15 0.90 -2 -0.75 -1.20 -2.25 -5.50 -1 -5.50 1.60 l0 1.20 5.75 0 5.75 0 0 -1.90z"/>
  <path d="M189.50 87.25 c0 -1.65 0.10 -1.75 1.75 -1.75 1.65 0 1.75 0.10 1.75 1.75 0 1.65 -0.10 1.75 -1.75 1.75 -1.65 0 -1.75 -0.10 -1.75 -1.75z"/>
  <path d="M2 7.30 c0 -3.25 4.05 -7.30 7.30 -7.30 1.55 0 1.70 0.15 1.70 1.45 0 1.20 -0.30 1.55 -2.20 2.25 -2.15 0.85 -3.30 2.30 -3.30 4.30 0 0.80 -0.35 1 -1.75 1 -1.65 0 -1.75 -0.10 -1.75 -1.70z"/>
  <path d="M464.50 8 c0 -1.10 -0.95 -3 -1.75 -3.65 -0.25 -0.20 -1.35 -0.60 -2.35 -0.85 -1.65 -0.45 -1.90 -0.75 -1.90 -2 0 -1.40 0.10 -1.50 2.10 -1.50 3.50 0 7.40 3.85 7.40 7.40 0 1.50 -0.10 1.60 -1.75 1.60 -1.40 0 -1.75 -0.20 -1.75 -1z"/>
 </g>
 <g fill="#e6e6e6">
  <path d="M467 264.50 c0 -2.40 -0.05 -2.50 -1.35 -2.50 -0.80 0 -105.20 0 -232.05 0 -184.90 0 -230.60 -0.10 -230.65 -0.60 -0.05 -0.35 -0.25 0.05 -0.45 0.85 -0.20 0.85 -0.40 -56.55 -0.45 -127.45 -0.05 -128.95 -0.05 -128.95 0.95 -128.05 0.95 0.90 1 0.85 1 -0.15 0 -2.10 1.10 -3.55 3.35 -4.40 1.95 -0.75 2.05 -0.90 1.30 -1.50 -0.75 -0.55 37.05 -0.65 226.25 -0.70 124.90 0 227.10 0.10 227.10 0.25 0 0.15 -0.50 0.45 -1.10 0.70 -1.05 0.40 -1 0.50 0.85 1 1.10 0.30 2.25 0.70 2.50 0.90 0.85 0.65 1.75 2.55 1.75 3.70 0 0.60 0.25 0.95 0.65 0.80 0.30 -0.10 0.55 -0.75 0.45 -1.40 -0.10 -0.95 -0.05 -1.05 0.35 -0.45 0.70 1 0.75 261.50 0.05 261.50 -0.30 0 -0.50 -1.10 -0.50 -2.50z m-233 -95.20 c0 -16.40 0.35 -14.85 -3.60 -15.50 -2.45 -0.45 -5.70 -1.90 -8.25 -3.75 -1.75 -1.30 -2.15 -1.40 -2.65 -0.80 -0.85 1.05 -1.60 0.40 -0.90 -0.70 0.50 -0.80 0.35 -1.25 -0.80 -2.55 -2.30 -2.80 -4.20 -7.10 -4.60 -10.55 -0.20 -1.75 -0.60 -3.35 -0.90 -3.55 -0.40 -0.30 -0.40 -0.50 0 -0.75 0.25 -0.25 0.75 -1.80 1.10 -3.55 0.65 -3.60 2.25 -7.20 4.05 -9.25 l1.25 -1.40 -10.60 -10.60 -10.65 -10.60 -1.35 1.60 c-4.15 4.85 -6.55 8.75 -9.30 15.15 -2.30 5.45 -4.45 17.80 -3.15 18.60 0.45 0.30 0.45 0.50 0 0.80 -0.75 0.45 -0.05 9.45 1 12.35 0.40 1.10 0.85 2.90 1.05 3.95 0.80 4.20 6.05 13.25 10.70 18.40 1.65 1.85 1.80 1.90 2.90 1.15 1.05 -0.65 1.20 -0.65 1.20 -0.05 0 0.40 -0.20 0.90 -0.50 1.05 -1 0.60 -0.45 1.30 3.65 4.55 8 6.35 18.20 10.20 28.50 10.60 l1.85 0.10 0 -14.70z m13 13.35 c1.50 -0.40 3.95 -1.05 5.35 -1.45 1.45 -0.40 3.80 -1.30 5.25 -2.05 3.65 -1.85 10.90 -6.75 12.40 -8.35 l1.20 -1.35 -10.20 -10.20 c-5.65 -5.65 -10.35 -10.25 -10.50 -10.25 -0.15 0 -1.45 0.75 -2.85 1.65 -2.50 1.65 -6.45 3 -10.25 3.60 l-1.90 0.30 0 14.80 0 14.75 4.40 -0.30 c2.40 -0.20 5.60 -0.70 7.10 -1.15z m29.70 -18.95 c0.55 -0.90 1.90 -2.85 2.95 -4.35 3 -4.40 6.55 -14.35 7.35 -20.60 0.75 -5.90 0.70 -6.75 -0.50 -6.75 -0.55 0 -1 -0.20 -1 -0.50 0 -0.25 0.45 -0.50 1 -0.50 1.15 0 1.20 -0.55 0.50 -5.65 -0.65 -4.60 -2.25 -10.40 -3.75 -13.60 -0.65 -1.35 -1.65 -3.50 -2.20 -4.65 -2 -4.35 -7.90 -11.45 -8.75 -10.60 -0.25 0.25 -0.80 0.50 -1.15 0.50 -0.55 0 -0.55 -0.20 -0.05 -1 0.55 -0.85 0.40 -1.20 -1.10 -2.80 -0.95 -1 -2.55 -2.35 -3.50 -3 -0.95 -0.65 -2.70 -1.85 -3.90 -2.70 -1.20 -0.85 -2.55 -1.55 -3 -1.65 -0.45 -0.05 -2.30 -0.85 -4.10 -1.70 -3.90 -1.90 -9.15 -3.45 -13.25 -3.85 -1.65 -0.15 -3.85 -0.45 -4.85 -0.60 l-1.90 -0.35 0 15 0 15 2.15 0.35 c3.05 0.45 8.45 2.30 9.60 3.25 2.85 2.35 4.10 3 4.75 2.40 0.50 -0.50 0.60 -0.35 0.35 0.60 -0.20 0.80 0.20 1.85 1.40 3.60 2 2.90 3.75 7.35 3.75 9.50 0 1.10 0.30 1.60 1 1.80 1.25 0.35 1.30 1.15 0.05 1.15 -0.75 0 -0.95 0.55 -1.25 3.25 -0.35 3.45 -1.85 7.10 -4.30 10.50 -0.95 1.35 -1.25 2.25 -1 2.75 0.25 0.40 4.85 5.10 10.20 10.45 l9.80 9.75 1.80 -1.75 c1 -0.95 2.30 -2.40 2.90 -3.25z m-37.50 -10.95 c5.70 -1.10 8.35 -2.70 13.15 -8 0.75 -0.80 1.95 -3.05 2.75 -5 1.10 -2.85 1.35 -4.30 1.40 -7.90 0 -3.80 -0.20 -4.85 -1.55 -8.05 -1.45 -3.50 -3.75 -6.45 -7.15 -9.25 -4.65 -3.80 -14.60 -4.95 -20.50 -2.40 -5.40 2.30 -10.55 7.65 -12 12.45 -1.30 4.15 -1.75 7.45 -1.25 8.75 0.25 0.70 0.45 1.95 0.45 2.85 0 2.60 3.15 8.30 6.15 11.15 3.25 3.10 6.15 4.65 10.10 5.45 4 0.80 3.95 0.80 8.45 -0.05z m-17.45 -38.60 c2.20 -2 6.30 -3.80 9.90 -4.35 l2.35 -0.35 0 -15.05 0 -15 -1.10 0.25 c-0.65 0.15 -2.50 0.40 -4.15 0.60 -9.55 1.05 -21.10 6.25 -28.45 12.85 l-2.05 1.85 10.50 10.55 c5.75 5.75 10.60 10.50 10.75 10.50 0.15 0 1.15 -0.85 2.25 -1.85z"/>
  <path d="M241 135 c0 -3.65 -3.50 -5.95 -4.75 -3.10 -0.60 1.35 -3.75 1.65 -3.75 0.35 0 -0.40 0.30 -0.75 0.70 -0.75 0.40 0 1.65 -0.80 2.80 -1.75 1.75 -1.50 2.20 -1.65 3.05 -1.10 0.50 0.30 0.95 0.75 0.95 0.95 0 0.25 0.25 0.40 0.50 0.40 0.30 0 0.50 -1 0.50 -2.20 0 -1.50 0.25 -2.30 0.75 -2.50 1.15 -0.45 1.35 0.65 1.05 5.80 -0.15 2.55 -0.25 4.95 -0.30 5.30 0 0.30 -0.35 0.60 -0.75 0.60 -0.55 0 -0.75 -0.55 -0.75 -2z"/>
  <path d="M228 132.25 c0 -1.20 0.25 -1.75 0.75 -1.75 0.40 0 0.75 0.30 0.75 0.70 0 0.45 0.35 0.60 1 0.45 0.65 -0.20 1 0 1 0.45 0 1.05 -1.05 1.90 -2.35 1.90 -1 0 -1.15 -0.25 -1.15 -1.75z"/>
  <path d="M228 126.30 c0 -1 0.60 -1.30 1.90 -0.95 1.65 0.40 1.35 1.65 -0.40 1.65 -0.95 0 -1.50 -0.25 -1.50 -0.70z"/>
 </g>
 <g fill="#dedede">
  <path d="M2.10 263 c0 -0.95 0.10 -1.35 0.25 -0.85 0.10 0.45 0.10 1.25 0 1.75 -0.15 0.45 -0.25 0.05 -0.25 -0.90z"/>
  <path d="M176.50 191.25 c2.90 -3.05 8.80 -9.15 13.20 -13.55 l7.95 -8.10 -2.75 -3.40 c-1.50 -1.90 -2.90 -3.80 -3.10 -4.20 -0.20 -0.40 0.25 0.05 1.05 1 0.75 0.95 2.30 2.70 3.40 3.90 l2 2.15 10.75 -10.75 10.70 -10.80 -1.55 -1.60 c-2.20 -2.35 -4 -6.25 -4.65 -9.95 -0.25 -1.75 -0.50 -3.35 -0.50 -3.55 0 -0.25 -6.75 -0.40 -15.05 -0.40 l-15 0 0.10 3 c0.05 1.65 -0.05 3.15 -0.20 3.35 -0.20 0.15 -0.35 -1.20 -0.35 -3 0 -3.30 0 -3.35 -1.35 -3.40 -0.80 -0.05 -3.85 -0.25 -6.90 -0.45 l-5.50 -0.35 6.85 -0.05 6.85 -0.10 0.20 -1.85 0.20 -1.90 0.05 1.90 0.10 1.85 15 0 14.95 0 0.30 -1.85 c0.75 -4.70 2.10 -8 4.35 -10.60 l1.50 -1.70 -22.95 -22.95 c-12.60 -12.60 -23 -23.10 -23.15 -23.30 -0.50 -0.80 5.75 5.15 15 14.25 l9.75 9.60 1.75 -1.60 1.75 -1.60 -1.60 1.75 -1.60 1.75 10.70 10.75 10.65 10.75 2.55 -2.05 c2.55 -2.15 7.80 -4.20 10.65 -4.20 1 0 1.55 -0.35 1.90 -1.10 0.30 -0.85 0.45 -0.95 0.45 -0.30 0.05 0.90 0.55 1.05 4.30 1.65 3.50 0.55 6.20 1.70 9.10 3.80 l2.75 2.05 10.55 -10.50 10.55 -10.55 -1.45 -1.60 c-0.85 -0.85 -2.40 -2.20 -3.45 -3 -1.05 -0.80 -1.65 -1.45 -1.35 -1.45 0.35 0 1.95 1.25 3.60 2.85 1.60 1.55 3.05 2.70 3.15 2.60 0.15 -0.10 4.15 -4.05 8.90 -8.70 4.75 -4.70 11.15 -10.85 14.15 -13.75 l5.50 -5.25 -4.75 5 c-2.65 2.75 -8.80 9.10 -13.75 14.15 -4.95 5.05 -9.10 9.25 -9.20 9.40 -0.15 0.10 0.65 1.15 1.80 2.35 1.10 1.15 2.50 2.90 3.10 3.85 l1.15 1.75 -1.20 -1.40 c-0.60 -0.80 -2.10 -2.45 -3.25 -3.75 l-2.10 -2.35 -10.65 10.60 -10.60 10.60 1.10 1.40 c0.60 0.75 1.45 2.20 1.90 3.15 0.40 0.95 1.10 2.50 1.50 3.40 0.45 0.90 0.75 2.15 0.80 2.75 0 0.60 0.10 1.60 0.20 2.25 l0.20 1.10 20.60 0 c11.30 0 20.65 0.10 20.80 0.25 0.20 0.20 -3.80 0.40 -9.25 0.45 -0.80 0 -1.15 0.30 -1.20 1.05 0 1 0 1 -0.40 0 -0.40 -0.95 -0.85 -1 -15.40 -0.85 l-14.95 0.15 -0.55 3.70 c-0.70 4.10 -1.40 5.75 -4.20 9.55 l-1.85 2.55 20.55 20.60 c17.10 17.15 27.45 27.80 25.75 26.55 -0.20 -0.15 -10.80 -10.70 -23.55 -23.45 l-23.20 -23.15 -2.70 1.80 c-2.85 1.90 -5.45 2.90 -10.05 3.80 -2.45 0.50 -2.90 0.75 -2.95 1.65 -0.05 1.05 -0.10 1.05 -0.30 0.10 -0.35 -1.35 -0.90 -1.60 -3.90 -2 -2.75 -0.40 -7.55 -2.70 -9.20 -4.45 l-1.05 -1.10 -10.70 10.75 c-12.30 12.35 -11.70 10.65 -5.55 15.30 1.90 1.45 5.15 3.45 7.15 4.45 1.95 1 3.60 1.95 3.60 2.05 0 0.35 -6.90 -3.15 -8.70 -4.45 -0.85 -0.55 -2.95 -2.15 -4.70 -3.45 -1.75 -1.35 -3.25 -2.35 -3.35 -2.25 -0.10 0.05 -4.30 4.20 -9.35 9.10 -5.05 4.95 -11.05 10.80 -13.40 13 -4.10 3.90 -4.05 3.85 1 -1.45z m62.95 -38.25 c1.40 -0.25 3.80 -1.10 5.35 -1.85 2.95 -1.45 8.95 -7 9.50 -8.80 0.15 -0.60 0.60 -1.40 0.90 -1.80 0.30 -0.40 0.60 -1.20 0.65 -1.75 0.05 -0.60 0.35 -2.50 0.65 -4.30 0.60 -3.70 0.10 -7.20 -1.50 -10.70 -0.55 -1.25 -1 -2.45 -1 -2.75 0 -0.95 -7.60 -8.05 -8.90 -8.35 -0.75 -0.15 -2.15 -0.65 -3.10 -1.10 -1.25 -0.60 -3.10 -0.85 -6.75 -0.80 -6.45 0 -10.10 1.40 -14.90 5.70 -1.85 1.60 -4.85 6.10 -4.85 7.20 0 0.45 -0.20 1.20 -0.45 1.70 -0.95 1.75 -1.50 6.50 -1.05 9.45 0.95 6.90 5.40 13.05 12.10 16.75 1.40 0.70 6.45 1.80 8.95 1.85 1 0.05 2.95 -0.15 4.40 -0.45z"/>
  <path d="M228.65 138.15 c-0.40 -0.15 -0.65 -1.25 -0.65 -2.95 l0 -2.70 1.85 0 1.80 0 -1.10 1.20 c-0.95 1 -1.10 1.55 -0.85 3 0.35 1.75 0.20 2 -1.05 1.45z"/>
  <path d="M240 137.80 c0 -0.75 1.85 -1.60 2.35 -1.10 0.15 0.15 0.15 0.60 0 1.05 -0.40 0.95 -2.35 1 -2.35 0.05z"/>
  <path d="M235.60 134.90 c-0.60 -0.60 -0.85 -2.90 -0.30 -2.90 0.60 0 1.65 1.70 1.70 2.65 0 1 -0.55 1.10 -1.40 0.25z"/>
  <path d="M236.50 129.55 c0 -0.25 0.35 -0.70 0.80 -1.05 0.65 -0.55 0.95 -0.50 1.85 0.40 l1.05 1.10 -1.85 0 c-1 0 -1.85 -0.20 -1.85 -0.45z"/>
  <path d="M228 127.10 c0 -1.85 0.20 -1.95 2 -1.70 1.65 0.25 2.10 1.60 0.50 1.60 -0.55 0 -1 0.35 -1 0.75 0 0.40 -0.35 0.75 -0.75 0.75 -0.50 0 -0.75 -0.50 -0.75 -1.40z"/>
  <path d="M240.65 126.75 c-0.30 -0.90 -0.20 -1.10 0.85 -1.30 0.80 -0.20 1 0.05 1 1.30 0 1 -1.45 0.95 -1.85 0z"/>
  <path d="M237.40 126.65 c0.60 -0.10 1.50 -0.10 2 0 0.45 0.15 -0.05 0.25 -1.15 0.20 -1.10 0 -1.50 -0.10 -0.85 -0.20z"/>
  <path d="M234.50 190.50 c-0.15 -3.15 -0.10 -7.10 0.05 -8.75 l0.30 -3 0.05 2.90 0.10 2.85 2.15 0.05 2.10 0.10 -2 0.30 -2 0.30 -0.25 5.50 -0.25 5.50 -0.25 -5.75z"/>
  <path d="M240.90 184.15 c0.60 -0.10 1.50 -0.10 2 0 0.45 0.15 -0.05 0.25 -1.15 0.20 -1.10 0 -1.50 -0.10 -0.85 -0.20z"/>
  <path d="M246.50 183.25 c0.95 -0.35 2.10 -0.65 2.50 -0.65 0.40 0 -0.05 0.30 -1 0.65 -0.95 0.35 -2.10 0.65 -2.50 0.65 -0.40 0 0.05 -0.30 1 -0.65z"/>
  <path d="M253.50 181.25 c1.75 -0.65 3.30 -1.10 3.40 -1 0.25 0.20 -5.25 2.25 -6.05 2.20 -0.35 0 0.85 -0.55 2.65 -1.20z"/>
  <path d="M261.50 177.80 c0 -0.10 0.70 -0.70 1.50 -1.30 0.85 -0.60 1.50 -0.95 1.50 -0.80 0 0.10 -0.65 0.70 -1.50 1.30 -0.80 0.60 -1.50 0.95 -1.50 0.80z"/>
  <path d="M268 173.35 c0 -0.10 0.75 -0.80 1.65 -1.65 l1.60 -1.45 -1.45 1.65 c-1.40 1.50 -1.80 1.85 -1.80 1.45z"/>
  <path d="M275.05 166.25 c1 -1.10 2.05 -2.45 2.35 -3 0.30 -0.55 0.60 -0.70 0.60 -0.35 0 0.40 -1.05 1.75 -2.35 3.05 -1.85 1.80 -1.95 1.85 -0.60 0.30z"/>
  <path d="M234.65 158.75 c0 -1.10 0.10 -1.50 0.20 -0.85 0.10 0.60 0.10 1.50 0 2 -0.15 0.45 -0.25 -0.05 -0.20 -1.15z"/>
  <path d="M187.50 154.40 c-1.35 -2.85 -2.60 -5.80 -2.75 -6.65 -0.15 -0.85 0.15 -0.40 0.65 1 0.55 1.40 1.90 4.35 3.05 6.65 1.15 2.25 1.95 4.10 1.80 4.10 -0.15 0 -1.40 -2.30 -2.75 -5.10z"/>
  <path d="M281 158.30 c0 -0.55 2.50 -5.30 2.75 -5.30 0.15 0 -0.35 1.20 -1.05 2.65 -1.40 2.75 -1.70 3.25 -1.70 2.65z"/>
  <path d="M286.30 144.25 c0.40 -1.85 0.70 -2.25 0.70 -0.95 0 0.50 -0.25 1.30 -0.50 1.70 -0.40 0.55 -0.45 0.35 -0.20 -0.75z"/>
  <path d="M287.35 137.75 c0.15 -1.90 0.35 -3.60 0.45 -3.70 0.35 -0.40 0.10 4.70 -0.30 5.95 -0.25 0.75 -0.30 -0.20 -0.15 -2.25z"/>
  <path d="M287.30 126.10 c-0.20 -2.05 -0.25 -3.80 -0.15 -3.95 0.35 -0.30 1 6.10 0.75 6.95 -0.15 0.35 -0.40 -1 -0.60 -3z"/>
  <path d="M286.10 119.15 c-0.35 -1.25 -0.55 -2.35 -0.45 -2.50 0.10 -0.10 0.50 0.85 0.85 2.10 0.35 1.25 0.55 2.40 0.40 2.50 -0.10 0.10 -0.50 -0.80 -0.80 -2.10z"/>
  <path d="M283.25 110.95 c-0.45 -0.85 -0.75 -1.65 -0.65 -1.75 0.15 -0.10 0.60 0.60 1.05 1.55 1.05 2.15 0.65 2.35 -0.40 0.20z"/>
  <path d="M186.50 111.35 c0 -0.55 2.80 -6 4.10 -7.95 2.10 -3 5.45 -7.40 5.65 -7.40 0.25 0 -1.20 2.20 -4.05 6.05 -1.15 1.50 -2.90 4.30 -3.85 6.25 -1 1.90 -1.80 3.25 -1.85 3.05z"/>
  <path d="M281.50 107.25 c-0.30 -0.75 -0.65 -1.60 -0.80 -1.80 -0.15 -0.25 -0.15 -0.45 0 -0.45 0.45 0 1.90 3.05 1.60 3.35 -0.15 0.15 -0.50 -0.35 -0.80 -1.10z"/>
  <path d="M206 88.05 c1.70 -1.55 9.95 -5.75 10.40 -5.35 0.10 0.15 -0.60 0.60 -1.60 1 -1 0.45 -2.65 1.15 -3.65 1.60 -1.05 0.45 -3 1.60 -4.40 2.55 -2.45 1.70 -2.45 1.75 -0.75 0.20z"/>
  <path d="M263 87.50 c-0.40 -0.25 -0.60 -0.55 -0.45 -0.70 0.15 -0.15 0.70 0.05 1.25 0.45 1.05 0.80 0.40 1 -0.80 0.25z"/>
  <path d="M234.60 82.40 l-0.10 -2.85 -2.10 -0.20 -2.15 -0.20 2.15 -0.05 2.10 -0.10 0.10 -5.85 0.10 -5.90 0.25 5.75 0.30 5.75 3.50 0.40 c5 0.50 5.25 0.85 0.40 0.50 l-4.10 -0.30 -0.20 2.95 -0.15 2.95 -0.10 -2.85z"/>
  <path d="M248.25 81.15 c-1.35 -0.40 -2.70 -0.95 -2.95 -1.15 -0.25 -0.25 1 0 2.75 0.55 1.75 0.55 3.25 1.10 3.40 1.20 0.35 0.40 -0.55 0.25 -3.20 -0.60z"/>
  <path d="M221.25 81 c0.55 -0.25 1.35 -0.45 1.75 -0.45 0.45 0 0.40 0.20 -0.25 0.45 -0.55 0.25 -1.35 0.45 -1.75 0.45 -0.45 0 -0.40 -0.20 0.25 -0.45z"/>
 </g>
 <g fill="#d6d6d6">
  <path d="M2.15 265 c0 -1.25 0.10 -1.75 0.20 -1.10 0.10 0.60 0.10 1.60 0 2.25 -0.10 0.60 -0.20 0.10 -0.20 -1.15z"/>
  <path d="M201.90 166 l18.15 -18.30 -1.35 -1.20 c-0.70 -0.70 -1.60 -1.90 -2 -2.75 l-0.70 -1.50 0.85 1.25 c3 4.40 10.30 9.45 13.70 9.55 0.95 0 2.15 0.20 2.70 0.45 0.65 0.30 0.05 0.35 -1.75 0.15 -2.90 -0.30 -8.70 -2.95 -10.30 -4.70 -0.90 -1 -1.30 -0.60 -19.15 17.15 l-18.30 18.15 18.15 -18.25z"/>
  <path d="M234.70 169.75 c0 -6.05 0.10 -8.45 0.15 -5.35 0.10 3.10 0.10 8.05 0 11 -0.05 2.95 -0.15 0.40 -0.15 -5.65z"/>
  <path d="M266.50 164.15 c-10.65 -10.75 -12.10 -12.30 -4.75 -5.15 10.75 10.50 20.60 20.50 20.20 20.50 -0.10 0 -7.05 -6.90 -15.45 -15.35z"/>
  <path d="M234.65 156.75 c0 -1.10 0.10 -1.50 0.20 -0.85 0.10 0.60 0.10 1.50 0 2 -0.15 0.45 -0.25 -0.05 -0.20 -1.15z"/>
  <path d="M238.65 153.15 c0.45 -0.10 1.25 -0.10 1.75 0 0.45 0.15 0.05 0.25 -0.90 0.25 -0.95 0 -1.35 -0.10 -0.85 -0.25z"/>
  <path d="M242 152.55 c0.40 -0.25 1.30 -0.60 2 -0.75 l1.25 -0.35 -1.25 0.75 c-0.70 0.45 -1.60 0.75 -2 0.75 -0.65 0 -0.65 -0.05 0 -0.40z"/>
  <path d="M251 146.80 c0 -0.10 0.75 -1.10 1.65 -2.20 0.85 -1.10 1.90 -2.40 2.25 -2.90 1.30 -1.90 -0.05 0.60 -1.60 2.90 -1.30 2.05 -2.30 2.95 -2.30 2.20z"/>
  <path d="M215.10 140.75 c-0.85 -1.85 -0.70 -2.25 0.20 -0.60 0.45 0.80 0.70 1.55 0.55 1.65 -0.10 0.10 -0.45 -0.35 -0.75 -1.05z"/>
  <path d="M228.25 137.50 c-0.45 -0.70 0.30 -7.50 0.80 -7.50 0.25 0 0.45 0.60 0.50 1.40 0 0.75 0.15 1.05 0.30 0.75 0.30 -0.85 2.15 -0.85 2.15 0 0 0.40 -0.55 1 -1.25 1.35 -1.45 0.75 -1.85 3.50 -0.50 3.50 0.40 0 0.75 0.25 0.75 0.50 0 0.65 -2.35 0.65 -2.75 0z"/>
  <path d="M239.50 137.50 c0 -0.25 0.35 -0.50 0.75 -0.50 0.55 0 0.75 -0.60 0.75 -2.20 0 -1.30 -0.30 -2.40 -0.75 -2.80 -0.40 -0.35 -0.75 -0.90 -0.75 -1.30 0 -0.40 -0.70 -0.70 -1.80 -0.80 -1.80 -0.15 -1.80 -0.15 -0.80 -1.05 0.95 -0.85 1.05 -0.85 2.55 0.40 l1.55 1.35 0 -1.80 0 -1.75 -5.75 -0.15 c-5.20 -0.15 -5.75 -0.05 -5.75 0.75 0 0.45 -0.20 0.85 -0.50 0.85 -0.25 0 -0.50 -0.65 -0.50 -1.50 l0 -1.50 3.70 0 c2.50 0 3.80 0.20 3.95 0.65 0.20 0.50 0.30 0.50 0.30 0 0.05 -0.45 1 -0.65 3.05 -0.65 l3 0 0 6.25 0 6.25 -1.50 0 c-0.80 0 -1.50 -0.20 -1.50 -0.50z"/>
  <path d="M213.55 135.40 c0 -0.70 -0.20 -1.75 -0.35 -2.25 -0.25 -0.85 -0.25 -0.85 0.30 0 0.30 0.50 0.45 1.50 0.35 2.25 l-0.20 1.35 -0.10 -1.35z"/>
  <path d="M256.70 134.85 c0.10 -1.05 0.35 -2.05 0.50 -2.20 0.45 -0.50 0.30 2 -0.25 3.10 -0.35 0.75 -0.40 0.55 -0.25 -0.90z"/>
  <path d="M234.85 134.10 c-1.25 -1.30 -1.30 -1.45 -0.55 -2.50 0.40 -0.60 1.20 -1.10 1.80 -1.10 0.85 0 0.90 0.10 0.40 0.75 -0.50 0.60 -0.50 1.05 -0.05 2.05 1.15 2.55 0.45 2.95 -1.60 0.80z"/>
  <path d="M190.85 131.40 c0.10 -0.25 5.15 -0.40 11.15 -0.40 8.25 0 11 -0.15 11.15 -0.60 0.15 -0.40 0.30 -0.30 0.30 0.20 0.05 0.80 -0.95 0.90 -11.40 1 -6.30 0.10 -11.35 0 -11.20 -0.20z"/>
  <path d="M263.65 131.15 c3.20 -0.10 8.50 -0.10 11.75 0 3.20 0.05 0.55 0.15 -5.90 0.15 -6.45 0 -9.10 -0.10 -5.85 -0.15z"/>
  <path d="M213.50 127.95 c0 -0.80 0.20 -1.40 0.45 -1.25 0.40 0.25 0.15 2.80 -0.25 2.80 -0.10 0 -0.20 -0.70 -0.20 -1.55z"/>
  <path d="M256.55 128.35 c-0.05 -1.70 -2.35 -7.25 -3.50 -8.60 -0.50 -0.55 -1.05 -1.35 -1.25 -1.75 -0.20 -0.40 0.30 0.05 1.15 1 1.85 2.15 4.20 7.90 3.90 9.55 -0.20 1.10 -0.20 1.10 -0.30 -0.20z"/>
  <path d="M215.80 121.40 c0.45 -0.90 1.40 -2.30 2.10 -3.05 l1.30 -1.40 -16.45 -16.60 -16.50 -16.60 16.60 16.50 16.60 16.45 1.40 -1.20 c0.75 -0.70 0.20 0.05 -1.25 1.70 -1.45 1.60 -2.95 3.55 -3.40 4.35 -0.40 0.80 -0.85 1.45 -1 1.45 -0.10 0 0.15 -0.75 0.60 -1.60z"/>
  <path d="M248.25 114.75 c-1.65 -1.25 -3.15 -2.25 -3.35 -2.25 -0.80 0 -1.15 -0.10 -2.15 -0.65 -0.55 -0.30 -2.25 -0.80 -3.75 -1.20 l-2.75 -0.60 2.50 0.25 c1.35 0.15 3.10 0.60 3.85 1 0.80 0.40 1.40 0.60 1.40 0.45 0 -0.45 2 0.70 4.80 2.80 l2.55 1.85 10.80 -10.80 c5.95 -5.95 14.35 -14.35 18.70 -18.60 l7.90 -7.75 -7.75 8 c-4.25 4.40 -12.70 12.90 -18.75 18.85 l-11 10.85 -3 -2.20z"/>
  <path d="M223 113.80 c0.75 -0.95 3.95 -2.55 4.30 -2.15 0.15 0.10 -0.50 0.50 -1.40 0.85 -0.90 0.35 -2.10 1 -2.65 1.45 -0.95 0.75 -0.95 0.75 -0.25 -0.15z"/>
  <path d="M232.65 110.15 l1.85 -0.20 0.10 -13.35 c0.10 -14.25 0.30 -12.75 0.50 3.80 l0.15 10.10 -2.25 -0.10 c-2.20 -0.05 -2.20 -0.05 -0.35 -0.25z"/>
 </g>
 <g fill="#cecece">
  <path d="M228.60 137.90 c-0.85 -0.85 -0.75 -2.90 0.15 -2.90 0.45 0 0.60 0.30 0.40 0.80 -0.20 0.50 0.05 0.85 0.80 1.05 0.55 0.15 1.05 0.60 1.05 0.95 0 0.85 -1.60 0.90 -2.40 0.10z"/>
  <path d="M239.50 137.75 c0 -0.40 0.35 -0.75 0.80 -0.75 0.45 0 0.90 -0.45 1.05 -1 0.40 -1.50 1.15 -1.20 1.15 0.45 0 1.40 -0.70 2.05 -2.30 2.05 -0.40 0 -0.70 -0.35 -0.70 -0.75z"/>
  <path d="M235.05 134.25 c-0.65 -0.70 -1.45 -1.25 -1.85 -1.25 -0.40 0 -0.70 -0.35 -0.70 -0.75 0 -0.40 0.40 -0.75 0.90 -0.75 0.50 0 1.55 -0.65 2.35 -1.50 1.45 -1.50 2.75 -1.95 2.75 -0.95 0 0.30 -0.65 1.10 -1.50 1.80 -1.40 1.15 -1.45 1.30 -0.75 2.30 0.80 1.15 1 2.35 0.40 2.35 -0.25 0 -0.95 -0.60 -1.60 -1.25z"/>
  <path d="M228 129.75 l0 -4.25 5.75 0 c3.15 0 5.75 0.20 5.75 0.45 0 0.75 -2.50 1.05 -6.35 0.80 l-3.65 -0.25 0 3.05 c0 2.65 0.10 3 0.75 2.45 0.60 -0.50 0.75 -0.45 0.75 0.40 0 0.95 -0.90 1.60 -2.30 1.60 -0.55 0 -0.70 -0.90 -0.70 -4.25z"/>
  <path d="M240.10 131.90 c-0.35 -0.35 -0.60 -1.05 -0.60 -1.60 0 -0.80 0.15 -0.85 0.60 -0.40 1 1 1.25 0.70 1.15 -1.40 -0.05 -1.40 0.10 -2 0.55 -2 0.50 0 0.70 0.80 0.70 3 0 2.55 -0.15 3 -0.90 3 -0.50 0 -1.15 -0.25 -1.50 -0.60z"/>
 </g>
 <g fill="#c5c5c5">
  <path d="M228.60 137.90 c-0.75 -0.75 -0.80 -6.90 -0.10 -6.90 0.30 0 0.50 0.35 0.50 0.75 0 0.85 0.80 1 1.25 0.25 0.45 -0.75 2.25 -0.60 2.25 0.20 0 0.40 -0.55 0.85 -1.25 1 -0.75 0.20 -1.50 0.90 -1.75 1.60 -0.75 1.90 -0.60 2.20 0.75 2.20 0.80 0 1.25 0.30 1.25 0.75 0 0.90 -2.05 1 -2.90 0.15z"/>
  <path d="M240.50 137.75 c0 -0.40 0.25 -0.75 0.50 -0.75 0.30 0 0.50 -0.45 0.50 -1 0 -0.55 0.25 -1 0.50 -1 0.85 0 0.60 2.85 -0.30 3.20 -1.10 0.45 -1.20 0.40 -1.20 -0.45z"/>
  <path d="M235.55 134.30 c-0.70 -0.70 -1.50 -1.30 -1.90 -1.30 -0.35 0 -0.65 -0.35 -0.65 -0.75 0 -0.40 0.35 -0.75 0.80 -0.75 0.40 0 1.45 -0.65 2.30 -1.50 1.75 -1.80 2.45 -1.85 3.70 -0.40 l0.95 1.05 -1.60 -0.30 c-1.30 -0.25 -1.85 -0.10 -2.65 0.75 -0.90 1 -0.95 1.15 -0.20 2.25 1.15 1.80 0.60 2.40 -0.75 0.95z"/>
  <path d="M228 127 c0 -1.35 0.15 -1.50 1.50 -1.50 0.85 0 1.50 0.25 1.50 0.50 0 0.30 -0.35 0.50 -0.80 0.50 -0.45 0 -0.90 0.45 -1.05 1 -0.40 1.50 -1.15 1.20 -1.15 -0.50z"/>
 </g>
 <g fill="#bdbdbd">
  <path d="M228.60 137.90 c-0.75 -0.75 -0.80 -6.90 -0.10 -6.90 0.30 0 0.50 0.50 0.50 1.10 0 1 0.05 1 0.90 0.25 0.50 -0.50 1.30 -0.85 1.75 -0.85 1.25 0 1 1.40 -0.25 1.60 -1.25 0.15 -2.70 2.35 -2.30 3.45 0.20 0.55 1.50 0.65 6.35 0.55 l6.05 -0.15 0 -1.90 c0 -1.45 -0.35 -2.20 -1.75 -3.55 l-1.75 -1.70 -1.35 1.35 c-1.30 1.30 -1.30 1.35 -0.40 2.35 0.50 0.55 0.75 1.15 0.60 1.35 -0.45 0.40 -2.85 -1.85 -2.80 -2.55 0 -0.30 0.95 -1.30 2 -2.25 l2 -1.70 1.35 1.10 c0.75 0.60 1.75 1.20 2.25 1.40 0.75 0.25 0.90 0.75 0.80 3.35 -0.05 1.65 -0.30 3.35 -0.60 3.70 -0.65 0.85 -12.40 0.85 -13.25 0z"/>
  <path d="M241.50 127.70 c0 -0.45 -0.45 -0.90 -1 -1.05 -1.50 -0.40 -1.20 -1.15 0.50 -1.15 1.35 0 1.50 0.15 1.50 1.50 0 0.85 -0.20 1.50 -0.50 1.50 -0.25 0 -0.50 -0.35 -0.50 -0.80z"/>
 </g>
 <g fill="#b5b5b5">
  <path d="M228.80 137.70 c-0.85 -0.85 -1 -4 -0.30 -6.20 l0.40 -1.25 0.05 1.40 c0.05 1.55 0.30 1.65 1.35 0.60 0.45 -0.40 1.60 -0.75 2.65 -0.75 1.40 0 2.20 -0.35 3.30 -1.50 0.80 -0.80 1.60 -1.50 1.80 -1.50 0.20 0 1.05 0.60 1.90 1.30 1.50 1.25 1.55 1.25 1.55 0.25 0 -0.60 0.25 -1.05 0.50 -1.05 0.30 0 0.50 1.15 0.50 2.50 0 1.40 -0.20 2.50 -0.50 2.50 -0.25 0 -0.50 -0.20 -0.50 -0.45 0 -0.25 -0.75 -1.25 -1.65 -2.25 l-1.70 -1.80 -1.30 1.20 c-0.75 0.70 -1.35 1.75 -1.35 2.40 0 0.85 -0.15 0.95 -0.60 0.50 -0.35 -0.35 -1.40 -0.60 -2.40 -0.60 -2.15 0 -3.65 1.35 -3.40 3.10 0.10 0.90 0.50 1.15 1.65 1.25 0.85 0 1.90 0.10 2.40 0.10 0.45 0.05 0.85 0.30 0.85 0.55 0 0.85 -4.35 0.60 -5.20 -0.30z"/>
  <path d="M234.50 138.05 c0 -0.55 1.45 -0.90 2.65 -0.65 1.50 0.30 0.90 1.10 -0.90 1.10 -0.95 0 -1.75 -0.20 -1.75 -0.45z"/>
  <path d="M239.50 138.05 c0 -0.25 0.45 -0.55 1 -0.70 0.55 -0.15 1 -0.60 1 -1.05 0 -0.45 0.20 -0.80 0.40 -0.80 0.70 0 0.35 2.05 -0.45 2.55 -0.90 0.55 -1.95 0.60 -1.95 0z"/>
  <path d="M228.10 126.65 c0.20 -1 3.40 -1.60 3.40 -0.70 0 0.30 -0.55 0.55 -1.25 0.55 -0.70 0 -1.25 0.25 -1.25 0.50 0 0.30 -0.25 0.50 -0.55 0.50 -0.30 0 -0.45 -0.40 -0.35 -0.85z"/>
 </g>
 <g fill="#adadad">
  <path d="M228.85 137.60 c-0.65 -0.70 -0.75 -1.95 -0.70 -6.35 l0.10 -5.50 7.15 -0.15 7.10 -0.20 0 3.80 c0 2.10 -0.15 3.80 -0.35 3.80 -0.20 0 -1.20 -0.85 -2.25 -1.85 -1.50 -1.45 -2.05 -1.70 -2.50 -1.25 -1 1 -1.60 0.65 -0.65 -0.40 1.15 -1.30 1.25 -1.30 3.15 0.55 l1.60 1.55 0 -2.55 0 -2.55 -6.25 0 -6.25 0 0 3.25 c0 3.40 0.15 3.70 1.45 2.55 1.10 -0.95 5.55 -1.40 5.20 -0.50 -0.10 0.35 0.15 1.20 0.60 1.90 1.10 1.65 0.30 1.70 -1.25 0.05 -1.45 -1.55 -2.95 -1.60 -4.70 -0.20 -1 0.75 -1.30 1.45 -1.20 2.40 l0.15 1.30 6.15 0.15 6.10 0.15 0 -1.80 c0 -0.95 0.25 -1.75 0.55 -1.75 0.70 0 0.10 3.60 -0.70 4.10 -0.35 0.20 -3.10 0.40 -6.15 0.40 -4.65 0 -5.65 -0.15 -6.35 -0.90z"/>
 </g>
 <g fill="#a5a5a5">
  <path d="M229.05 137.85 c-0.35 -0.35 -0.55 -2.80 -0.55 -6.20 l0 -5.65 6.70 0 6.65 0 0.35 4.40 c0.35 4.90 -0.10 7.30 -1.35 7.40 -0.65 0.10 -0.70 0.05 -0.10 -0.15 0.55 -0.15 0.75 -0.90 0.75 -2.60 0 -2.05 -0.25 -2.60 -1.80 -4.10 l-1.75 -1.70 -1.50 1.65 c-1.10 1.25 -1.85 1.60 -3.20 1.60 -2.65 0 -4.25 1.25 -4.25 3.25 0 1.45 0.20 1.70 1.40 1.85 1.25 0.15 1.25 0.20 0.25 0.45 -0.60 0.20 -1.30 0.10 -1.60 -0.20z m3.30 -5.85 c1.05 0 2.25 -0.60 3.70 -1.75 l2.10 -1.80 1.70 1.60 1.65 1.65 0 -2.60 0 -2.60 -6.25 0 -6.25 0 0 3.60 c0 3.40 0.05 3.50 0.90 2.75 0.50 -0.50 1.60 -0.85 2.45 -0.85z"/>
  <path d="M235.30 134.05 c-0.95 -1.05 -0.60 -1.40 0.65 -0.60 0.35 0.25 0.60 0.70 0.45 1.05 -0.10 0.35 -0.50 0.20 -1.10 -0.45z"/>
 </g>
 <g fill="#9c9c9c">
  <path d="M228.65 137.25 c-0.15 -0.45 -0.15 -0.95 0.05 -1.10 0.15 -0.20 0.30 0.05 0.30 0.50 0 0.40 0.50 0.90 1.15 1 l1.10 0.20 -1.15 0.10 c-0.60 0 -1.25 -0.30 -1.45 -0.70z"/>
  <path d="M241.60 135 c0 -0.95 0.10 -1.35 0.25 -0.85 0.10 0.45 0.10 1.25 0 1.75 -0.15 0.45 -0.25 0.05 -0.25 -0.90z"/>
  <path d="M231.90 132.15 c0.60 -0.10 1.50 -0.10 2 0 0.45 0.15 -0.05 0.25 -1.15 0.20 -1.10 0 -1.50 -0.10 -0.85 -0.20z"/>
 </g>
 <g fill="#949494">
  <path d="M232.40 137.65 c1.70 -0.10 4.40 -0.10 6 0 1.55 0.10 0.15 0.15 -3.15 0.15 -3.30 0 -4.60 -0.05 -2.85 -0.15z"/>
 </g>
 <g fill="#8c8c8c">
 </g>
 <g fill="#848484">
 </g>
 <g fill="#7b7b7b">
 </g>
 <g fill="#737373">
 </g>
 <g fill="#6b6b6b">
 </g>
 <g fill="#636363">
 </g>
 <g fill="#5a5a5a">
 </g>
 <g fill="#525252">
 </g>
 <g fill="#4a4a4a">
 </g>
 <g fill="#424242">
 </g>
 <g fill="#3a3a3a">
 </g>
 <g fill="#313131">
 </g>
 <g fill="#292929">
 </g>
 <g fill="#212121">
 </g>
 <g fill="#191919">
 </g>
 <g fill="#101010">
 </g>
 <g fill="#080808">
 </g>
 <g fill="#000000">
 </g>
</svg>